<svg id="Layer_2" data-name="Layer 2" xmlns="http://www.w3.org/2000/svg" viewBox="0 0 194.3159 68.9422">
  <g id="_3.5_x_2_in_1" data-name="3.5 x 2 in – 1">
    <g id="Text">
      <g>
        <path d="M27.9652,38.9972c.9088,1.7855-.0447,5.4175.4643,7.2184.501.9806,2.0943.4469,2.9772.6832.778.0794.9321.6285.9354,1.2813-.0676,1.7739.1914,4.6715-.1277,6.3291-1.3656.9658-4.7064.1455-6.5963.3997-.5178-.0096-1.1817.0034-1.2815-.6121-.4981-1.4328.7971-6.6482-.8055-7.3554-.9084-.3128-2.5243.262-3.1498-.6482-.3754-1.6335-.0248-4.8339-.1753-6.4375.0213-1.0273-.9333-1.0992-1.7938-1.1004-.8077-.0463-2.0494.141-2.1741-.8928-.14-1.565.0271-4.8051-.0838-6.1987-.1007-1.6743-2.7685-.4993-3.5952-1.4033-.7687-.8563-.0543-2.3791-.8202-3.2202-5.8462-2.1283-1.9555,3.7425-4.9783,3.6215-1.501-.3238-7.1676.9967-6.7253-1.2137.0859-1.7395-.2031-4.7638.1287-6.4546.6219-.7576,2.3555-.2688,3.5262-.404,1.3751-.2576,3.7583.6251,4.381-.5845.0806-2.2052.0238-8.0667.0323-10.4141.0891-1.5654-1.7334-.9774-2.7406-1.1487-.8742.0177-1.3427-.4804-1.2861-1.3212.0214-1.6539-.0779-4.5567.0415-6.0326.054-.6282.6483-.6886,1.1725-.6924,1.7489.2605,5.3891-.623,6.7488.4598.6324,1.7727-.8257,6.5998.848,7.5041.8897.2659,2.2372-.1661,2.956.5911.8,1.0185-.3384,3.6592,1.5682,3.5431,1.8723-.0406,4.4747.1702,6.2418-.1037.9381-.5977.7688-2.6475.2065-3.5112-.6418-.6955-2.7348-.1722-3.2854-.7032-.7222-1.1306-.1876-2.7769-.3455-4.125.155-1.1878-.4904-3.1893.7393-3.5535,1.0942-.1374,2.8658-.3876,3.1827.8348.1054,4.1009,1.0126,2.3801,3.7494,3.5061.6545.5918.227,2.4748.6147,3.1488,1.4567,1.0812,4.7411.2276,6.528.4735,2.5913.2171.1562-3.8994,2.4526-4.0089,1.4597-.0129,4.4761-.0827,6.0874.026,1.0874.1383.8277,1.4822.8963,2.3083-.5166,3.6543,7.0848.1617,7.964,2.4222.0664,3.374.4995,3.2733,3.5893,3.3924,1.3561.1454.1915,13.3743.5588,15.1012.0917.8717-.6499.9626-1.4196.959-5.0212-.4387-.1284,4.5119-5.4867,4.1181-1.7725.2143-.8381,2.551-1.3846,3.6269-1.8402.879-6.307.0869-9.4308.3457-3.0614.442-2.5697-1.3671-2.3419-3.394,1.0483-1.4533,5.5268-.2265,7.1526-.7146,1.4083-.4135.3439-2.585,1.1365-3.4902.6515-.9049,2.821-.0636,3.5432-.8763.3518-2.6268.1352-8.5872.0845-11.1418-.3429-.8511-1.6269-.4732-2.4222-.6084-2.7603.1857-.3622-3.9939-2.7736-4.0025-1.3282.3214-6.7121-.9637-6.8073,1.0408-.1194,1.2816-.1821,2.9523,1.3706,2.9504,2.5621-.3084,3.0385,1.4641,2.4138,3.5931-1.2337,1.0226-5.5017.3464-7.1751.3914-1.484-.5689.0847-3.283-1.4006-3.859-1.8057-.0927-5.0117-.2994-6.9125.0997-.7632.6278-.2899,2.0304-.5871,2.9054-.069.2432-.1745.4447-.3631.599-.7031.5976-2.6834.1248-3.2133.6384-.7955,1.5477-.1501,4.6339-.3367,6.4398-.1608,1.8283,2.0726,1.1765,3.1934,1.4343,1.6917.4996.4851,5.1689.8538,6.7712-.0532,1.914,2.5681.8531,3.6151,1.4278l.0649.0415Z" fill="#e61e25" stroke-width="0"/>
        <path d="M91.36,65.5765c-.3603-.5322-.2656-1.2939-.7275-1.7821-.4861-.596-1.4013-.5267-1.9247-1.0713-.5639-.5471-.4786-1.5222-1.1494-1.9879-.6702-.5211-1.8128-.3546-2.0698.5572-.4559,1.2665.4547,3.8618-.8652,4.5784-1.9814.518-1.9038.8955-2.3204,2.6919-.1489.2963-.4352.3508-.7555.3605-2.0348.0134-8.3734.002-12.3949.0058-1.5913-.0557-2.5745.1189-3.3128-.1023-.5674-.2095-.2501-1.4583-.8866-2.1787-.7407-.8998-2.5892-.2548-2.4177-1.8892.015-2.1681-.0505-6.8499.021-9.105.04-1.2064,1.4157-.7097,2.2541-1.4212.8862-.628.2208-2.4493,1.583-2.4132,2.2603-.0263,9.7455.0006,12.1473-.0137.6687.0534,1.0731-.2462,1.0714-.9203.06-.8418.0415-2.6581.0198-3.6349.0083-.5831-.138-1.2182-.8522-1.1421-2.5131-.0176-12.6203.0056-15.2954-.0118-.8795.0439-.9464-.7765-.9319-1.5661.0157-1.3398.5074-1.3329,2.1847-1.2816,3.9611-.0049,11.7818.0084,14.0427-.006.2847-.0165.5619-.0304.6998-.2916.297-.7792.1229-2.2826.1693-3.2851-.0688-1.0264.2532-2.1841-.9545-2.1207-1.8317-.0074-7.1486-.0011-11.1262-.0032-2.1443-.0814-3.3779.1821-4.6351-.1324-.538-.4194-.4537-1.8397-.1709-2.4129.1624-.2506.4236-.2915.7222-.3024,2.675-.0173,12.7823.0058,15.2954-.0117.2847-.0191.5619-.0284.6997-.2916.5944-1.1473-.5687-4.9133.991-5.303,5.9278-.4147,4.6389-.2251,4.9603,4.8743.0694.6104.558.7213,1.127.7203,1.8645.0163,4.0492.0006,5.9863.0059,1.3945.1781,3.7656-.5375,4.1079.7326.5811,2.724-1.4315,2.0411-3.5396,2.1209-2.3569.0059-5.3511-.0122-6.6631.0099-.3962.0175-.806.0602-.9515.4721-.2597,1.01-.1026,2.4688-.1369,3.5509.0469.8297-.0489,1.5435.7992,1.6402,2.1223.085,7.0477.0032,9.2919.0392,1.2504-.1539,1.5078,1.2199,1.145,2.2752-.207.5667-.7691.5846-1.8047.5725-2.4916.0139-7.2245-.0289-8.6322.0236-1.0345.111-.7335.8553-.8044,2.0213.0112,1.6208-.0249,3.5437.0173,5.1737-.0877,1.7262,1.8685.9037,2.5805,2.1594.2531.4234.2648.9621.5033,1.3843.8361,1.2521,3.6301.2594,4.7325.8598.853.3942.5811,1.5629,1.2251,2.1455.6461.6796,1.8663.3727,2.1861,1.3202.2937,1.0002.132,2.181.1582,3.2115.0046.782-.1597,1.5428-1.0226,1.611-.7608.0981-2.1768.0645-3.1407.0452-.4268-.0241-.8982-.0892-1.1807-.4126l-.0552-.0689ZM79.3114,57.6881c-1.152-.4276-2.5395.2526-2.5158-1.6604-.0246-.5395-.0808-1.0178-.3964-1.1973-1.1324-.3639-3.135-.0983-4.3253-.1505-.2413.0177-.4816.0582-.6549.1991-.5806.5711-.0843,1.7198-.6676,2.298-.5262.5281-1.5847.1725-2.1769.5558-.2831.2007-.3089.5583-.3285.8951.045,1.2106-.1531,3.086.1172,4.1208.323.6261,1.2476.3836,1.8346.5391,1.2514.142.6446,1.9449,1.1616,2.5141.2151.2252.5311.2442.8432.2635,1.213-.0691,3.0431.2085,4.1968-.1581.69-.5202.1289-1.7585.7353-2.3474.6411-.674,2.2914.0995,2.4702-1.0915.0977-1.0966.0302-2.9274.0353-3.9692-.0196-.2709-.0398-.5944-.2636-.7666l-.065-.0448Z" fill="#e61e25" stroke-width="0"/>
        <path d="M111.0255,31.122c-.5948.3559-2.2842-.0957-2.6857.4799-.3114,1.804-.0205,6.5858-.1242,8.2735.0068.8055-.3553.7766-1.311.7843-.4756.0014-1.0915.0004-1.7164.0007-.9883-.018-1.9632.049-2.7799-.0496-.285-.0576-.381-.1948-.4162-.4705-.0619-1.7756-.0091-6.1802-.0195-7.9704-.059-1.7893,2.8012-.0566,3.08-1.5925.094-.9216.0093-3.501.051-4.6249.0208-.3279.024-.6978.3597-.8287,1.2647-.2128,3.3073-.0459,4.7068-.0924,1.0733-.0079,1.1849.1739,1.176,1.3138.0022,1.1781.0024,2.6145-.0008,3.7594-.006.4988-.0403.8136-.2569.9757l-.0627.0417ZM129.6576,40.277c-.5441.5251-1.6806.2447-2.2247.835-.7125.6223-.1756,1.995-.8902,2.538-2.4777.3731-8.1174.0183-10.7657.1357-.4666-.0046-.785-.0297-.9792-.2159-.4966-.3928-.0909-1.9213-.8569-2.5261-.6287-.5293-1.6751-.2437-2.2185-.9093-.4857-.593-.4485-1.7254-.026-2.2169.7172-.6063,1.7817-.309,2.683-.3835,1.4978.0313,3.2839-.363,3.2219,1.618-.01.8665.5043,1.5518,1.4257,1.4905.8951.0305,2.3124.0214,3.2552.0071.5131-.0111,1.141-.0957,1.363-.5956.3014-.6392.1104-1.5324.6593-2.0685.6452-.6727,2.0803-.2785,2.4596-.8704.2097-.2906.2003-.683.2141-1.056-.065-2.0273.1507-5.5513-.1023-7.2748-.2886-.9117-1.8392-.3335-2.5714-1.0807-.6004-.5888-.3044-1.638-.9038-2.2231-.5635-.5767-1.5458-.3219-2.1502-.8349-.6727-.513-.3744-1.7235-.9782-2.2913-.5366-.5486-1.4303-.3577-2.0699-.6589-.3613-.1591-.5286-.5615-.5659-.9644-.0731-.8743-.0366-2.4706-.0301-3.5115-.0877-1.8678,1.3985-1.2757,2.5113-1.8907.8952-.6058.3335-2.3593,1.5841-2.6685.5271-.1815,1.1866-.1423,1.6245-.5198.6006-.5014.6313-1.6344.1427-2.2169-.4965-.6086-1.4204-.4221-2.0523-.7919-.0885-.0523-.1692-.1142-.2406-.1856-.6933-.6728-.257-2.1782-.935-2.5009-.7511-.3109-1.5559-.1234-2.4088-.1739-1.1849,0-2.6116.0001-3.7778,0-1.0346-.065-1.6728.1818-2.3547-.2659-.4478-.4847-.6097-2.4161.206-2.7814,2.1799-.2163,8.063-.0098,10.637-.0779,1.3761-.1486,1.2518.9306,1.3557,1.9414.0445.6509.4683,1.115,1.1266,1.1431,1.0403.0968,3.0636-.0108,4.031.0744.504.0224.9399.2618.9903.8025.1219,1.0704.054,2.7928.0455,3.9861-.0258.4861-.1218,1.0076-.589,1.2229-1.1095.3503-2.399.1636-2.5119,1.7158-.1742,2.2276-2.1135,1.1048-2.9215,2.1829-.4329,1.2659-.1539,3.1607-.1895,4.3898.0365.4326.1371.7439.3563.9402.576.4898,1.5255.2255,2.1382.6789.7938.4942.4147,1.8641,1.1329,2.4214.6047.513,1.5866.2583,2.1502.835.599.585.3036,1.6343.9038,2.2231.7981.7836,2.4758.121,2.6188,1.2526.1331,1.5727.0243,3.9695.0578,5.6877-.0497.8552.1376,1.6544-.1739,2.4072-.323.6775-1.8295.2416-2.5027.9344-.6049.5815-.2897,1.6191-.8355,2.2231l-.0682.0682ZM136.6438,27.8016c-.4895-.6131-.1107-1.6038-.5222-2.266-.2173-.3742-.7172-.4769-1.2687-.5024-1.7051.0884-1.7822-1.254-1.5153-2.536.2404-1.0331,2.9611-.4478,4.0104-.5945,2.4468-.1283,1.9449.4541,2.2413,2.3348.2325,1.1822,2.1639.458,2.7323,1.2178.5197.6749.0305,1.8352.7159,2.4109.669.5717,2.0611-.047,2.5952.6938.2632,1.3626.0312,4.4938.1068,6.8205-.0843,1.2079.3513,2.1142-.842,2.1389-1.0162.0238-3.5567.0238-4.5729,0-.25-.0142-.4972-.0359-.6607-.1837-.1497-.1571-.1581-.3766-.173-.613-.0602-1.686.0822-6.2337-.0632-8.021-.3782-.9905-2.0495-.2001-2.7193-.8354l-.0646-.0645ZM136.5009,6.328c.3992-.1007,2.1991-.0724,2.6275-.0172.3781.0833.3368.4382.3534.789.065.6233-.1494,1.629.1453,2.1541.7263.4036,2.0955-.1162,2.8384.2879.1836.1685.135.6781.144,1.3326-.0472.7703.1212,1.2838-.161,1.5854-1.4891.1701-3.6053.0124-5.2006.0645-.9522.0046-.8957.0612-.891-.8911.0804-1.3663-.1629-4.1841.0988-5.2783l.0452-.0268ZM142.7083,6.1276c-.2308-.3265.0106-2.3141-.1632-2.7112-.1146-.2351-.2809-.2495-.6255-.2666-.6846-.0796-1.6769.1603-2.2924-.1484-.2948-.5076-.0904-1.8749-.1319-2.5298.0206-.1495.03-.3589.2017-.4134,1.663-.0585,4.2755-.1018,5.921.017.1398.0789.1131.3279.1178.8347-.0066,1.4657.0162,3.681-.0109,5.011-.0864.5526-.7442.2834-1.4656.3506-.6928-.0287-1.1552.0754-1.5058-.0989l-.0452-.0452Z" fill="#e61e25" stroke-width="0"/>
        <path d="M162.614,62.6749c-.5923-.566-.3245-1.8427-1.0575-2.3449-.6775-.5424-2.1286-.2273-2.5106-.4021-.7792-3.212-1.4309-30.7867-1.9704-38.0384.0082-.5889-.1792-.8256.3809-.9163.0878-.0152.1939-.028.3199-.0394,1.381-.0875,3.8222-.2051,5.1287-.2301.4345.0249.6019-.0068.6614.3126.0942,1.7532.5862,12.7468,1.0398,22.5593.2169,4.732.4211,9.1888.5592,12.2009.0901,1.8164.1283,3.1062.1769,3.6167.0332.1472.1077.207.2784.2503.7515.1483,1.7784-.1295,2.4577.3882.8257.594.4845,2.2062.9935,2.5932.1965.1743.4768.188.7556.1858,2.211-.094,8.9362-.3919,11.0068-.5082,1.4188-.0949.5631-1.8587,1.1843-2.6754.4774-.8506,1.9243-.5213,2.4714-1.2961.5245-.6787.173-1.7577.8431-2.3543.7277-.7511,2.6014-.1146,2.62-1.5113.0015-1.3583-.2121-4.9008-.2869-6.904-.1118-1.4479-.0259-1.8971,1.2216-1.9327,1.073-.0609,3.0296-.168,4.0362-.1718.8288-.0488,1.2107.4267,1.2228,1.2296.066,1.0266.1701,2.8757.1659,3.9055.0614.9688-.7465,1.3412-1.5995,1.3876-.6447.0682-1.3711.2796-1.4483,1.0083-.2519,1.2583.4389,3.7791-.1272,5.0966-.3544.5019-1.0582.4787-1.612.6225-.5596.1189-1.0133.4544-1.1603,1.0164-.1643.5613-.0895,1.2323-.4649,1.717-.5471.7747-1.994.4452-2.4715,1.2956-.7256,1.1099.4766,2.9016-1.6071,2.7058-3.5757.1629-14.4423.6625-17.2589.7885-.2963.0093-.5739.0186-.7369-.2429-.3188-.5733-.1355-1.968-.7792-2.4804-.5953-.5893-1.7665-.2429-2.3586-.7643l-.0744-.0678Z" fill="#e61e25" stroke-width="0"/>
      </g>
    </g>
  </g>
</svg>